<?xml version="1.0" encoding="utf-8"?>
<!-- Generator: Adobe Illustrator 16.0.0, SVG Export Plug-In . SVG Version: 6.00 Build 0)  -->
<!DOCTYPE svg PUBLIC "-//W3C//DTD SVG 1.1//EN" "http://www.w3.org/Graphics/SVG/1.1/DTD/svg11.dtd">
<svg version="1.1" id="Layer_1" xmlns="http://www.w3.org/2000/svg" xmlns:xlink="http://www.w3.org/1999/xlink" x="0px" y="0px"
	 width="452.834px" height="362.521px" viewBox="0 0 452.834 362.521" enable-background="new 0 0 452.834 362.521"
	 xml:space="preserve">
<path fill="#F9BC15" d="M164.833,319.871C89.952,319.871,50,256.511,50,180.242C50,91.83,101.413,42.146,164.833,42.146
	c22.854,0,43.814,6.106,61.399,17.859l30.008-35.559C230.482,8.356,199.546,0,165.75,0C74.208,0,0,64.854,0,180.26
	c0,99.555,57.667,182.26,165.75,182.26c30.609,0,59.274-7.055,83.882-20.891L220.1,305.577
	C203.704,315.048,184.869,319.871,164.833,319.871z"/>
<path fill="#35495E" d="M452.834,89.687h-85.833l-44.189,25.82c-11.921-40.903-35.463-71.629-66.571-91.061l-30.008,35.559
	c24.891,16.636,42.996,44.611,50.107,82.656l-151.506,88.526H224l55.052-34.041c-3.959,53.275-26.748,89.828-58.952,108.431
	l29.532,36.053c48.983-27.542,81.868-81.987,81.868-161.37c0-5.198-0.16-10.28-0.445-15.271L452.834,89.687z"/>
</svg>
